<svg xmlns="http://www.w3.org/2000/svg" xmlns:xlink="http://www.w3.org/1999/xlink" version="1.1" role="img" aria-labelledby="at-svg-email-4" style="width: 32px; height: 32px;" width="32" height="32"><rect id="backgroundrect" width="100%" height="100%" x="0" y="0" fill="none" stroke="none"/><title id="at-svg-email-4">Email</title><g class="currentLayer" style=""><title>Layer 1</title><g id="svg_1" class="selected" fill="#ffffff" fill-opacity="1"><g fill-rule="evenodd" id="svg_2" fill="#ffffff" fill-opacity="1"/><path d="M26.099099099636078,22.757 c0,1.24 -0.988,2.243 -2.19,2.243 H6.289099099636078 C5.079099099636078,25 4.099099099636078,23.994 4.099099099636078,22.757 V13.67 c0,-0.556 0.39000000000000007,-0.773 0.8550000000000001,-0.49600000000000005 l8.78,5.238 c0.782,0.467 1.9500000000000002,0.467 2.73,0 l8.78,-5.238 c0.47200000000000003,-0.28 0.8550000000000001,-0.06300000000000001 0.8550000000000001,0.49500000000000005 v9.087 z" id="svg_3" fill="#ffffff" fill-opacity="1"/><path d="M26.099099099636078,9.243 C26.099099099636078,8.006 25.119099099636077,7 23.909099099636077,7 H6.289099099636078 C5.087099099636077,7 4.099099099636078,8.004 4.099099099636078,9.243 v0.465 c0,0.554 0.38500000000000006,1.232 0.8570000000000001,1.514 l9.61,5.7330000000000005 c0.267,0.16000000000000003 0.8,0.16000000000000003 1.067,0 l9.61,-5.7330000000000005 c0.47300000000000003,-0.28300000000000003 0.8560000000000001,-0.9600000000000001 0.8560000000000001,-1.514 v-0.465 z" id="svg_4" fill="#ffffff" fill-opacity="1"/></g></g></svg>