<svg width="30.000000000000004" height="30.000000000000004" xmlns="http://www.w3.org/2000/svg">

 <g>
  <title>background</title>
  <rect fill="none" id="canvas_background" height="402" width="582" y="-1" x="-1"/>
 </g>
 <g>
  <title>Layer 1</title>
  <path fill="#ffffff" id="P" d="m16,0c-8.187,0 -13,6.105 -13,11c0,2.964 2,6 3,6s2,0 2,-1s-2,-2 -2,-5c0,-4.354 4.773,-8 10,-8c4.627,0 7,3.224 7,7c0,4.968 -2.735,9 -6,9c-1.803,0 -3.433,-1.172 -3,-3c0.519,-2.184 1,-2 2,-6c0.342,-1.368 -0.433,-3 -2,-3c-1.843,0 -4,1.446 -4,4c0,1.627 1,3 1,3s-2.245,7.863 -2.576,9.263c-0.658,2.786 -1.486,6.737 -0.486,6.737s2.062,-2 4.062,-7c0.295,-0.738 1,-3 1,-3c0.599,1.142 3.14,2 5,2c5.539,0 9,-5.24 9,-12c0,-5.112 -4.42,-10 -11,-10z"/>
 </g>
</svg>