<svg xmlns="http://www.w3.org/2000/svg" xmlns:xlink="http://www.w3.org/1999/xlink" version="1.1" role="img" aria-labelledby="at-svg-print-3" width="19" height="17" style=""><rect id="backgroundrect" width="100%" height="100%" x="0" y="0" fill="none" stroke="none"/><title>Print</title><g class="currentLayer" style=""><title>Layer 1</title><g id="svg_1" class="selected" fill="#ffffff" fill-opacity="1"><path d="M17.620000286102297,3.130000228881837 h-2.8600000000000003 V2.2888183615066282e-7 H3.770000286102295 v3.12 H0.9000002861022951 c-0.5,0 -0.9,0.4 -0.9,0.9 v7.66 h3.77 v1.31 L7.950000286102295,17.170000228881836 h6.8100000000000005 v-5.44 h3.77 v-7.7 c-0.010000000000000002,-0.5 -0.41000000000000003,-0.9 -0.91,-0.9 zM4.830000286102296,1.0700002288818364 h8.86 v2.06 h-8.86 V1.0700002288818364 zm10.98,9.18 h-1.05 v-2.1 h-1.06 v7.96 H9.350000286102294 c-1.58,0 -0.8200000000000001,-3.74 -0.8200000000000001,-3.74 s-3.6500000000000004,0.8900000000000001 -3.6900000000000004,-0.78 v-3.43 h-1.06 v2.06 H2.7200002861022945 v-3.58 h13.09 v3.6100000000000003 zm0.7500000000000001,-4.91 c-0.4,0 -0.7200000000000001,-0.32000000000000006 -0.7200000000000001,-0.7200000000000001 s0.32000000000000006,-0.7200000000000001 0.7200000000000001,-0.7200000000000001 c0.4,0 0.7200000000000001,0.32000000000000006 0.7200000000000001,0.7200000000000001 s-0.32000000000000006,0.7200000000000001 -0.7200000000000001,0.7200000000000001 zm-4.12,2.96 h-6.1 v1.06 h6.1 v-1.06 zm-6.11,3.15 h6.1 v-1.06 h-6.1 v1.06 z" id="svg_2" fill="#ffffff" fill-opacity="1"/></g></g></svg>